<svg width="55" height="54" viewBox="0 0 55 54" fill="none" xmlns="http://www.w3.org/2000/svg">
<path d="M43.5938 5C43.2609 7.64702 33.2748 19.8574 30.577 21.5334C28.8115 22.6303 23.8669 25.7027 25.9488 25.7027C27.5364 25.7027 30.5568 19.9819 31.2279 18.5143C36.1393 7.77342 19.2276 5.82009 13.0767 10.8226C4.06316 18.1534 7.42638 30.9488 7.14685 41.2298C7.01148 46.2087 1.62414 51.0019 8.44853 47.9869C12.8007 46.0641 17.7407 46.2934 22.4777 46.4055C27.3085 46.5198 31.3733 50.0185 36.3623 48.7058C42.05 47.2092 47.0786 44.6327 48.8005 38.6419C50.7389 31.8981 51.2854 22.9888 42.8706 20.5989C35.9334 18.6287 30.0787 23.7113 24.0686 25.7027" stroke="#5C98BA" stroke-width="10" stroke-linecap="round"/>
</svg>
