<svg width="483" height="324" viewBox="0 0 483 324" fill="none" xmlns="http://www.w3.org/2000/svg">
<path d="M45.9664 277.276C45.9664 270.268 34.6612 275.273 32.8111 278.985C29.5386 285.551 39.3013 294.441 44.9253 295.695C50.3158 296.897 58.7357 297.412 63.002 293.132C73.0508 283.051 71.9266 262.864 60.0681 254.299C47.4278 245.169 25.06 245.834 14.072 257.147C5.92807 265.532 3.01904 278.119 6.35866 289.286C9.95509 301.313 21.1639 310.72 32.7165 314.874C45.5889 319.504 59.7288 319.594 73.176 318.245C78.2345 317.737 82.0343 313.254 86 310.602" stroke="#70689E" stroke-width="10" stroke-linecap="round"/>
<path d="M455.447 49.1673C455.135 45.7414 449.679 36.3735 454.818 34.0894C460.555 31.5396 464.081 28.7964 469.687 32.8329C483.239 42.5904 476.873 65.7122 462.427 70.5276C447.168 75.614 436.305 68.0337 429.898 54.0536C422.116 37.075 422.923 24.6182 437.297 13.0083C445.153 6.6631 465.307 1.71179 474.294 7.70307" stroke="#70689E" stroke-width="10" stroke-linecap="round"/>
</svg>
