<svg width="113" height="46" viewBox="0 0 113 46" fill="none" xmlns="http://www.w3.org/2000/svg">
<path d="M5 17.9053C8.3029 21.6413 11.6273 25.3537 14.9723 29.0508" stroke="#AB529D" stroke-width="10" stroke-linecap="round"/>
<path d="M26.7041 17.9053C21.406 25.3227 16.1222 32.7496 10.8657 40.1963" stroke="#AB529D" stroke-width="10" stroke-linecap="round"/>
<path d="M40.1963 16.1455C40.5152 22.843 40.9184 35.1555 50.7552 32.4727C56.2898 30.9633 54.2749 20.1661 54.2749 16.1455" stroke="#AB529D" stroke-width="10" stroke-linecap="round"/>
<path d="M68.9401 36.0903C68.1902 33.6201 65.3912 14.2376 66.7892 14.8095C69.8374 16.0565 72.9052 18.0505 75.4579 20.1215C77.5787 21.8421 77.5742 20.3873 78.9124 18.2313C79.8099 16.7854 80.9121 14.8591 82.3994 13.9296C83.8895 12.9983 86.1173 19.8259 86.5383 20.8385C88.6135 25.8302 90.0579 30.0252 90.0579 35.5037" stroke="#AB529D" stroke-width="10" stroke-linecap="round"/>
<path d="M105.31 32.5706V33.7438" stroke="#AB529D" stroke-width="10" stroke-linecap="round"/>
<path d="M107.069 5V20.8384" stroke="#AB529D" stroke-width="10" stroke-linecap="round"/>
</svg>
