<svg width="127" height="132" viewBox="0 0 127 132" fill="none" xmlns="http://www.w3.org/2000/svg">
<path d="M86.2822 92.6692C86.2822 88.7086 87.7181 86.3994 91.7506 86.3994C92.4743 87.8467 94.6441 87.8234 94.7206 89.8879C94.7957 91.9172 96.1047 95.1079 93.4242 95.9456C90.6068 96.826 86.2822 96.4093 86.2822 92.6692Z" stroke="#AB529D" stroke-width="4" stroke-linecap="round"/>
<path d="M89.2079 85.9751C85.4358 78.5993 82.7425 71.4413 84.2109 62.97C84.8482 59.2933 87.504 51.9503 92.7906 54.0602C102.409 57.8991 101.033 73.3149 98.8248 81.0252C98.4167 82.4499 97.9394 84.0217 97.2691 85.3622C96.6757 86.5489 97.5482 84.6182 97.6934 84.4194C101.352 79.4067 117.258 60.9185 123.244 71.2198C126.395 76.6428 124.814 81.2744 119.638 84.4665C114.757 87.4761 109.481 90.0784 104.175 92.2449C102.572 92.8995 101.953 93.0793 100.451 93.5413C99.9999 93.6801 98.9931 93.5312 99.1076 93.9891C99.4513 95.3639 115.027 92.7908 117.469 96.2284C121.371 101.72 121.572 113.593 112.637 113.27C105.752 113.021 102.492 107.488 98.5419 102.757C94.9816 98.4945 102.293 113.315 102.926 118.833C103.338 122.425 103.144 126.652 99.249 128.308C94.7621 130.216 89.1178 128.951 88.0765 123.688C87.0966 118.737 88.6107 113.02 89.3493 108.132C89.9545 104.126 89.5819 106.573 90.0564 103.276C90.1531 102.605 90.8363 100.897 89.7029 102.215C85.2505 107.395 81.0146 112.698 75.3954 116.711C73.8247 117.833 65.0945 123.537 63.3036 119.304C61.1785 114.281 68.7684 107.542 71.9305 105.067C74.3467 103.176 77.3852 102.086 79.5674 99.929C81.5532 97.9663 79.948 97.2953 78.0353 96.1577C74.6619 94.1512 70.8954 92.8795 67.452 90.9957C65.6729 90.0223 59.7624 85.9751 60.9999 84.4194C65.4999 78.7628 71.0411 80.1438 73.0855 79.9881C86 82.1566 87.0023 78.4256 87.9351 82.1566" stroke="#AB529D" stroke-width="4" stroke-linecap="round"/>
<path d="M21.7525 97.7886C21.1317 96.9473 20.3419 97.0949 19.5155 97.7046C19.2539 97.8976 18.8914 98.3587 18.9979 98.7197C19.3071 99.7675 21.1114 98.3871 21.55 98.1859" stroke="#AB529D" stroke-width="4" stroke-linecap="round"/>
<path d="M22.431 95.3029C24.8412 93.803 27.2469 92.3059 29.7782 91.0144C30.8836 90.4504 34.064 89.1852 33.4211 90.2467C31.6267 93.2096 26.5588 95.1964 23.7011 97.0244" stroke="#AB529D" stroke-width="4" stroke-linecap="round"/>
<path d="M23.4755 98.5202C25.7322 99.778 26.2228 101.23 28.4274 102.584C28.756 102.785 32.7659 107.431 31.9783 107.397C27.5995 107.208 25.2431 104.192 21.5373 102.166" stroke="#AB529D" stroke-width="4" stroke-linecap="round"/>
<path d="M19.3497 97.1322C16.9457 93.874 14.6092 89.5718 11.2667 87.1445C9.33631 85.7426 11.2156 89.9684 11.424 90.327C12.5502 92.265 14.1553 93.8281 15.7983 95.3215" stroke="#AB529D" stroke-width="4" stroke-linecap="round"/>
<path d="M15.7991 95.322C12.9145 96.2585 10.1188 97.2473 7.50726 98.8306C7.16112 99.0404 2.99504 102.006 6.18546 101.677C9.15696 101.37 12.1955 99.4821 14.8492 98.2384" stroke="#AB529D" stroke-width="4" stroke-linecap="round"/>
<path d="M17.4024 99.8978C15.1851 102.64 14.127 106.366 14.3687 109.866C14.4307 110.764 16.8602 107.37 17.0535 106.999C18.1479 104.893 19.1944 102.751 20.107 100.561" stroke="#AB529D" stroke-width="4" stroke-linecap="round"/>
<path d="M20.0888 93.9295C18.996 90.5633 20.5288 85.2882 22.8313 82.6995C23.7111 81.7103 23.3863 89.1873 23.3108 89.7553C23.0574 91.6608 22.6343 93.4532 21.9327 95.2276" stroke="#AB529D" stroke-width="4" stroke-linecap="round"/>
<path d="M95.427 16.1057C94.3814 16.1057 94.0312 16.8289 94.0312 17.8559C94.0313 18.1809 94.1871 18.7464 94.5408 18.875C95.5675 19.2484 95.528 16.9769 95.6264 16.5045" stroke="#AB529D" stroke-width="4" stroke-linecap="round"/>
<path d="M93.8301 14.0834C94.054 11.2535 94.2777 8.42886 94.7413 5.62519C94.9437 4.40082 95.8138 1.09043 96.2863 2.23795C97.6052 5.44099 96.195 10.6986 95.9694 14.0834" stroke="#AB529D" stroke-width="4" stroke-linecap="round"/>
<path d="M97.0391 15.1529C99.391 14.0838 100.851 14.551 103.249 13.5808C103.606 13.4361 109.725 12.9672 109.23 13.5809C106.479 16.9926 102.653 17.0982 98.8218 18.8769" stroke="#AB529D" stroke-width="4" stroke-linecap="round"/>
<path d="M93.4727 17.649C89.4236 17.649 84.5745 16.9749 80.6368 18.2234C78.3627 18.9445 82.8788 19.9412 83.2911 19.9864C85.5192 20.2308 87.73 19.8672 89.9071 19.4317" stroke="#AB529D" stroke-width="4" stroke-linecap="round"/>
<path d="M89.9081 19.4316C88.949 22.3089 88.0848 25.1456 87.8084 28.187C87.7717 28.5901 87.6845 33.7031 89.3138 30.9403C90.8313 28.3672 91.1161 24.8012 91.6908 21.9275" stroke="#AB529D" stroke-width="4" stroke-linecap="round"/>
<path d="M94.542 20.858C95.4321 24.2702 97.8019 27.3335 100.762 29.2171C101.521 29.7003 100.233 25.7308 100.049 25.3545C99.0043 23.2238 97.9023 21.1102 96.6813 19.0752" stroke="#AB529D" stroke-width="4" stroke-linecap="round"/>
<path d="M91.3337 15.1532C87.9762 14.034 84.6415 9.66869 83.9254 6.27903C83.6517 4.98378 89.4755 9.68425 89.8877 10.0823C91.2706 11.4174 92.4618 12.8221 93.473 14.4401" stroke="#AB529D" stroke-width="4" stroke-linecap="round"/>
</svg>
