<svg width="84" height="110" viewBox="0 0 84 110" fill="none" xmlns="http://www.w3.org/2000/svg">
<path d="M39.7815 66.4262C39.9519 64.887 42.0376 62.6682 43.3103 62.0294C46.7738 60.2913 49.4775 59.121 50.2949 55.019C52.1511 45.7035 43.1435 41.0993 35.0602 42.1462C24.1796 43.5553 11.8812 49.798 6.92721 60.2952C1.23819 72.3498 0.780859 86.8555 11.9649 95.8358C20.0903 102.36 28.2182 106.19 38.7107 106.779C43.379 107.041 49.7394 107.55 53.8967 104.923C56.9194 103.012 59.2194 100.476 61.4897 97.7411C67.1695 90.9001 67.9974 82.5026 61.0029 76.7587C58.4939 74.6983 55.8262 73.9008 52.5825 73.9008C49.9648 73.9008 45.6536 73.7356 43.286 72.6794C40.7783 71.5608 38.777 69.322 40.2196 66.4262" stroke="#FF4895" stroke-width="5" stroke-linecap="round"/>
<path d="M28.5255 55C26.5437 55 25.5421 55.2922 25.0751 57.4276C24.4951 60.0801 27.4089 60.4507 29.1528 60.9341C30.7769 61.3842 32 59.4286 32 58.0897C32 56.2496 30.5278 55.9725 28.9598 55.4414" stroke="#FF4895" stroke-width="5" stroke-linecap="round"/>
<path d="M19.9633 72C15.4691 72 14 74.4557 14 79.109C14 83.4672 19.5733 84.5918 22.7556 83.7323C29.2608 81.9752 24.8311 72.4474 19.5373 72.4474" stroke="#FF4895" stroke-width="5" stroke-linecap="round"/>
<path d="M44.9905 84.3811C42.8434 84.2193 38 82.9212 38 86.2777C38 88.9756 39.1409 91.412 42.3755 91.9208C44.7695 92.2973 45.832 91.3088 46.751 89.4388C47.6397 87.6305 45.8974 85.9762 45.4565 84.3811" stroke="#FF4895" stroke-width="5" stroke-linecap="round"/>
<path d="M44.7073 5.62653C44.7073 10.7776 39 14.0672 39 19.2942C39 22.036 41.0905 22.7186 43.3902 23.3556C45.3173 23.8893 51.7781 24.5857 53.4878 23.1367C55.8132 21.1659 57 19.9694 57 16.7893C57 13.2113 55.3706 12.635 53.0488 10.4418C51.983 9.43509 50.176 7.51499 48.878 6.93979C47.7175 6.42548 45.0847 4.12879 44.7073 3" stroke="#FF4895" stroke-width="5" stroke-linecap="round"/>
<path d="M50 25C50 26.9753 50.9503 29.2076 51.4976 31.0934C53.1052 36.6328 55.2317 41.6337 57.8019 46.8002C61.4987 54.2309 66.6395 60.4033 71.256 67.2409C73.4722 70.5233 76.6444 74.7516 80 77" stroke="#FF4895" stroke-width="5" stroke-linecap="round"/>
<path d="M55 23C58.6244 26.7928 62.4597 30.8579 65.3193 35.2735C68.2037 39.7274 71.2918 43.9121 73.4737 48.7621C75.9987 54.3749 77.778 60.1694 79.9202 65.9206C81.2421 69.4696 80.9786 81.0382 80.9786 77.2463" stroke="#FF4895" stroke-width="5" stroke-linecap="round"/>
</svg>
