<svg width="79" height="89" viewBox="0 0 79 89" fill="none" xmlns="http://www.w3.org/2000/svg">
<path d="M15.3083 70.2967C11.1025 66.6088 4.13783 71.4659 4.0032 76.3798C3.85587 81.7572 8.82132 85.1037 13.8809 84.9975C18.3425 84.9039 22.2393 82.0945 21.9885 77.3937C21.7855 73.5881 17.3963 71.208 14.7944 69.2829" stroke="#FF4895" stroke-width="7" stroke-linecap="round"/>
<path d="M22.1256 75.234C22.1256 79.0409 22.2042 67.616 22.0118 63.814C21.6853 57.3625 20.9726 50.9427 20.703 44.479C20.369 36.4757 20.2772 28.458 19.9632 20.4517C19.8376 17.25 19.6827 14.037 19.4511 10.8407C19.3394 9.29999 18.7976 7.4153 19.0812 5.86565C19.3098 4.61649 38.6877 5.52644 39.6523 5.52644C46.4 5.52644 53.1817 5.46684 59.9104 4.90456C63.1672 4.63241 66.393 4 69.6696 4C72.1175 4 70.7558 13.4233 70.7793 15.1939C70.8785 22.6851 71.7668 30.4693 72.6002 37.921C73.0507 41.9484 73.8521 46.2476 73.8521 50.3021C73.8521 52.9033 72.1397 48.9801 71.519 48.8039C69.8877 48.3409 68.5492 47.2168 66.6537 48.0407C63.8701 49.2506 61.5345 50.7066 60.2519 53.7507C58.5543 57.7797 60.5579 62.7804 64.9181 63.927C68.9924 64.9985 72.4753 63.4968 74.2505 59.9696C75.6959 57.0975 75.0506 53.1311 72.3157 51.3197" stroke="#FF4895" stroke-width="7" stroke-linecap="round"/>
<path d="M20 21C25.6865 21 31.3347 19.7961 37.0105 19.7075C42.2951 19.6251 47.8914 20.4414 53.1228 19.5639C58.0276 18.7412 63.0439 19.0613 68 19.0613" stroke="#FF4895" stroke-width="7" stroke-linecap="round"/>
</svg>
