<svg width="579" height="108" viewBox="0 0 579 108" fill="none" xmlns="http://www.w3.org/2000/svg">
<path d="M3.53906 99.4663C26.8648 94.0834 28.7901 56.7645 31.1856 38.7276C31.622 35.4423 29.9306 26.8953 32.5819 28.8838C35.2564 30.8896 36.6405 38.9935 37.7482 41.9391C42.9395 55.7431 45.9692 71.7766 55.132 83.6882C61.444 91.8937 67.6223 94.2794 77.8916 91.298C84.0049 89.5232 83.7686 85.1005 86.758 80.6164C88.0711 78.6468 90.3855 88.287 90.3884 88.296C91.9388 93.1196 93.8554 98.0463 97.5095 101.7C105.087 109.278 124.191 99.5483 130.741 94.5095C134.43 91.6721 136.978 87.818 139.259 83.8278C139.485 83.4316 148.925 95.3619 152.035 96.185C158.121 97.7961 173.27 98.4727 175.632 90.5998C178.595 80.7233 179.08 82.2713 186.034 89.1337C195.2 98.179 209.475 105.165 222.617 102.398C227.004 101.475 230.732 99.105 232.81 95.1378C233.508 93.8051 234.781 90.3304 236.859 91.5772C247.611 98.0283 258.864 107.159 271.069 98.2096C272.821 96.9244 279.546 88.5083 280.563 89.413C284.99 93.3482 290.348 99.2362 295.992 101.212C300.554 102.808 307.559 96.9452 310.723 94.3C311.371 93.7584 312.852 90.6599 313.655 91.0885C319.864 94.3997 323.44 97.1519 331.109 96.3944C360.314 93.51 365.221 54.9047 371.183 32.165C373.515 23.2677 373.826 12.5305 377.326 4.02977C377.818 2.83611 378.72 6.23054 379.141 7.45068C381.425 14.0595 383.845 20.6224 386.193 27.2082C392.61 45.2077 397.533 64.8083 406.858 81.5938C412.319 91.424 428.406 94.5345 435.412 85.2241C437.917 81.8956 440.722 72.5534 444.069 70.4234C445.858 69.2848 451.887 80.3167 452.447 81.1749C456.285 87.0533 460.084 93.4201 465.083 98.4191C467.681 101.016 474.101 93.0831 475.765 91.3678C479.936 87.0658 478.057 75.6402 483.305 83.0599C489.335 91.5852 498.245 106.109 508.578 94.3C511.341 91.142 512.77 87.2222 513.465 83.1297C513.54 82.689 513.512 77.6196 514.582 78.5917C519.345 82.9221 530.761 103.196 539.575 98.9078C547.531 95.0377 543.993 85.9249 546.696 79.9182C546.947 79.3604 556.189 88.6371 558.286 89.9715C563.663 93.3933 569.429 94.6559 575.32 93.183" stroke="#FF4895" stroke-width="7" stroke-linecap="round"/>
</svg>
