<svg width="415" height="313" viewBox="0 0 415 313" fill="none" xmlns="http://www.w3.org/2000/svg">
<path d="M22.1695 14.5518C22.1695 21.6443 20.9038 28.4791 20.6621 35.4879C20.6108 36.9746 19.4199 40.9574 20.4946 37.3303C21.4141 34.2269 22.1695 31.0171 22.1695 27.7415C22.1695 25.0121 22.4912 22.1054 21.7927 19.4508C21.0708 16.7078 20.939 15.3055 24.0956 15.3055C30.5471 15.3055 36.9946 14.5518 43.2732 14.5518" stroke="#FF4895" stroke-width="7" stroke-linecap="round"/>
<path d="M6.34297 9.27591C5.35412 9.39952 4.93072 18.0046 4.83556 19.2415C4.74198 20.4581 3.4753 22.9296 4.24935 20.414C4.96093 18.1013 5.55473 15.7245 6.17548 13.3794C6.63492 11.6437 5.37483 6.95454 7.09667 6.09362C10.0221 4.63089 15.8891 4 19.1559 4" stroke="#FF4895" stroke-width="7" stroke-linecap="round"/>
<path d="M397 249C397 259.291 397.754 269.551 397.754 279.734C397.754 289.426 397 298.882 397 308.542" stroke="#FF4895" stroke-width="7" stroke-linecap="round"/>
<path d="M410.566 268.596C410.566 273.77 411.32 278.539 411.32 283.67" stroke="#FF4895" stroke-width="7" stroke-linecap="round"/>
</svg>
