<svg width="101" height="26" viewBox="0 0 101 26" fill="none" xmlns="http://www.w3.org/2000/svg">
<path d="M4 7.69849C4.64897 8.59082 8.22572 21.4768 9.50691 20.5616C10.4378 19.8967 13.4619 13.1004 14.3563 13.9451C15.3207 14.856 23.1752 22.1167 23.192 22.0411C24.2551 17.2572 26.307 12.4741 27.6715 7.69849" stroke="#FF4895" stroke-width="7" stroke-linecap="round"/>
<path d="M36.5488 7.69869C36.7273 8.02314 45.9367 20.1741 46.001 20.1098C47.0134 19.0974 47.9192 16.5333 48.3846 15.1371C49.1988 12.6944 52.8996 16.2731 53.8915 16.9043C54.3555 17.1995 57.9803 19.2265 58.0011 19.2057C59.8309 17.3758 59.4743 14.5154 60.5902 12.507C61.7121 10.4875 60.8649 6.63668 63.1792 5.47949" stroke="#FF4895" stroke-width="7" stroke-linecap="round"/>
<path d="M71.3164 6.2192C72.1731 10.5027 77.1606 13.6968 79.2891 17.3152C81.8722 21.7065 82.3359 15.3817 83.522 13.2467C85.308 10.0319 91.9184 18.8577 92.8098 17.5207C95.5545 13.4036 95.1368 8.14053 97.2071 4" stroke="#FF4895" stroke-width="7" stroke-linecap="round"/>
</svg>
