<svg width="86" height="73" viewBox="0 0 86 73" fill="none" xmlns="http://www.w3.org/2000/svg">
<path d="M30.327 4.64979C23.4452 4.75813 19.3754 4.75813 12.4384 4.75813C9.45372 4.75813 6.60407 4.25043 4.3885 6.46458C2.99254 7.85965 2.70466 11.2953 3.27724 13.155C3.92656 15.2639 3.52473 17.4769 3.90063 19.6557C4.43747 22.7674 4.3741 25.9982 4.65954 29.136C5.19735 35.0481 5.1203 40.9437 5.1203 46.9048C5.1203 49.9728 3.90295 56.3724 7.55966 57.7935C9.26192 58.4551 12.818 56.5626 14.5796 56.9538C15.4287 57.1424 16.368 64.6946 16.8292 65.7028C17.4319 67.0204 17.7374 68.6211 18.4012 69.8741C18.8045 70.6353 19.3285 67.7022 19.377 67.5447C19.9709 65.6158 20.7635 63.6719 21.4911 61.8023C21.8035 60.9994 22.6845 58.3348 23.4426 57.9019C24.9476 57.0424 26.9653 57.382 28.6465 57.4143C35.9044 57.5538 43.1035 57.9331 50.3839 57.9019C59.7384 57.8618 69.1339 57.0551 78.4636 56.4121C82.399 56.1409 82.3351 51.9301 82.6647 48.8008C83.6301 39.6353 82.2039 29.9655 82.2039 20.7392C82.2039 16.6255 82.0365 12.7247 81.2282 8.68568C80.9669 7.38027 79.9771 4.16435 78.7075 3.59341C76.1931 2.46266 71.6288 3.29546 68.923 3.29546H50.3839C43.7067 3.29546 36.9421 3.79216 30.327 4.64979Z" stroke="#FF4895" stroke-width="6" stroke-linecap="round"/>
<path d="M41.8558 28.3728C41.892 24.2619 47.0204 22.1302 50.3134 21.5326C51.7473 21.2724 53.3341 21.5387 54.359 22.6347C55.7265 24.097 56.245 27.7045 55.6886 29.5402C55.41 30.4592 54.7756 31.6636 54.1526 32.4114C51.7342 35.3148 48.472 37.9616 45.511 40.3071C44.5389 41.0772 43.6317 41.9195 42.6458 42.6808C42.1231 43.0846 36.5683 37.2546 36.0041 36.7846C32.7738 34.0938 29.5011 31.1305 29.0963 26.6873C28.8782 24.294 30.7696 22.5404 33.1029 22.237C34.6172 22.0401 36.3253 21.6137 37.7124 22.6107C38.4906 23.1701 38.9126 23.7389 39.6007 24.3763C40.2375 24.966 40.3939 25.7751 41.0408 26.346C41.3464 26.6157 41.7626 27.3501 41.7988 27.7477" stroke="#FF4895" stroke-width="6" stroke-linecap="round"/>
</svg>
