<svg width="46" height="44" viewBox="0 0 46 44" fill="none" xmlns="http://www.w3.org/2000/svg">
<path d="M28.7468 17.7928C28.5233 15.7816 25.047 15.7942 23.5672 16.1941C20.1718 17.1118 18.3877 19.1991 18.3877 22.6206C18.3877 26.4804 24.8201 30.5148 26.7645 25.9778C27.4317 24.421 28.4734 22.3221 27.8835 20.6703C27.3747 19.2454 29.4715 25.2112 30.6012 26.2975C32.5585 28.1795 35.9523 27.52 37.9549 26.0737C43.9481 21.7452 42.8265 10.2829 36.8039 6.60236C30.9223 3.00806 20.104 3.56058 13.7836 5.70713C7.45499 7.85647 4 13.6403 4 20.0948C4 26.7257 6.45093 33.0275 12.0571 37.2321C16.5528 40.6039 21.1404 40.2375 26.4448 40.2375" stroke="#FF4895" stroke-width="7" stroke-linecap="round"/>
</svg>
