<svg width="75" height="129" viewBox="0 0 75 129" fill="none" xmlns="http://www.w3.org/2000/svg">
<path d="M36.1005 101.413C34.9547 99.1246 34.3269 96.2778 34.0263 93.7726C33.3452 88.0966 37.2263 82.8079 40.7816 78.7761C41.734 77.6961 42.7692 76.7254 43.8548 75.7825C43.9664 75.6857 44.5842 74.721 44.6255 74.7657C44.7609 74.9122 44.84 75.6696 44.8634 75.773C45.1121 76.8754 45.3567 77.9802 45.615 79.0803C46.2203 81.6576 47.4136 84.0131 48.6406 86.3409C51.7335 92.2084 55.6816 97.9588 55.9288 104.797C56.12 110.087 54.5487 114.35 50.9432 118.197C47.4861 121.885 42.7348 122.791 37.8131 122.929C34.935 123.01 31.8905 122.771 29.1453 121.846C27.0882 121.153 25.6312 119.792 24.2739 118.149C21.3735 114.638 18.7355 109.823 19.0885 105.139C19.2841 102.543 21.0012 101.072 22.3995 99.1041C23.9482 96.9244 24.1707 94.7653 24.2739 92.138C24.3023 91.4143 24.1331 90.7416 24.1121 90.0283C24.1061 89.824 25.2274 91.6254 25.4632 91.967C27.501 94.9183 29.9008 97.1079 32.5801 99.4272C33.4301 100.163 35.085 100.582 35.5867 101.585" stroke="#E4004D" stroke-width="7" stroke-linecap="round"/>
<path d="M10.2817 61.9663C10.2817 65.3476 7.96702 69.8708 7.30611 73.4886C6.08592 77.7411 4.71104 82.3915 4.2376 86.7913C3.1886 96.5402 5.63291 107.141 11.1772 115.277C16.5283 123.129 27.7611 124.108 36.339 125.007C45.041 125.919 53.4405 123.622 60.3206 118.332C65.8485 114.082 69.1484 108.48 69.1484 101.504C69.1484 97.5564 68.3072 93.5042 67.4489 89.6587C66.181 83.9771 67.4849 78.9153 68.7236 73.3476C70.3571 66.0047 70.8479 58.5251 70.8479 51.0198C70.8479 49.8519 71.409 48.3164 70.3758 49.4921C69.2012 50.8288 68.161 52.2408 67.0241 53.6051C65.0792 55.9389 61.6073 58.1262 59.1404 59.9509C57.9872 60.8039 58.1216 53.0499 58.0074 51.9129C57.5825 47.682 56.266 43.4746 54.396 39.6678C49.4759 29.6519 42.941 20.3279 37.3303 10.6886C36.2368 8.80999 35.1181 6.93387 34.1674 4.9774C34.0036 4.6403 33.5645 3.71871 33.4829 4.08429C33.2008 5.34834 33.8661 6.9061 33.8841 8.19732C34.0106 17.2622 33.8469 26.304 34.2146 35.3668C34.4721 41.7117 34.7505 49.6071 32.704 55.7204C32.1982 57.231 30.1748 53.1397 29.8715 52.665C27 48.172 25.8824 43.2088 25.0563 37.9991C24.8982 37.0024 25.229 36.4427 25.3631 35.5078C25.4363 34.998 26.1974 33.8123 25.7172 34.0036C24.5144 34.4826 23.1925 37.8093 22.6487 38.8922C21.3502 41.4781 21.0126 44.4611 20.3827 47.2593C19.2914 52.1072 18.4982 57.776 19.3441 62.7243C19.6793 64.685 20.6816 65.9833 18.9193 63.8524C16.3285 60.7199 13.2039 57.5943 11.366 53.9341C10.7575 52.7223 10.639 50.8102 9.87894 49.7506C9.79268 49.6304 9.94188 52.85 9.99696 53.3231C10.6879 59.2572 10.6995 65.1797 7.96702 70.6213" stroke="#E4004D" stroke-width="7" stroke-linecap="round"/>
</svg>
