<svg width="89" height="115" viewBox="0 0 89 115" fill="none" xmlns="http://www.w3.org/2000/svg">
<path d="M31.363 37.9872C31.9021 27.7431 21.1558 23.8496 12.0597 23.8496C1.85104 23.8496 3.06865 36.0269 6.35034 42.6393C9.84893 49.6887 15.7921 56.0598 21.0014 61.8821C23.7465 64.9501 26.8807 68.1788 29.1879 71.579C30.0134 72.7954 31.363 72.4886 31.363 74" stroke="#E4004D" stroke-width="7" stroke-linecap="round"/>
<path d="M31.8984 38C31.8984 34.0034 33.1131 24.7882 37.3435 22.3391C41.4057 19.9873 46.2197 20.9019 49.6081 23.3661C55.7494 27.8325 50.8057 39.8814 48.2185 45.0558" stroke="#E4004D" stroke-width="7" stroke-linecap="round"/>
<path d="M57.0389 65.9999C56.8272 63.8826 55.2076 61.8719 53.9576 60.281C52.3 58.1713 49.8117 55.8052 47.5534 54.2997C43.7526 51.7658 35.168 49.4477 35.168 56.4747C35.168 63.8484 42.6838 68.9709 47.0701 73.8446C49.9016 76.9906 51.1564 81.0849 53.1118 84.629C54.4589 87.0706 54.4665 88.2889 57.0389 85.7165C64.3297 78.4257 72.1805 72.3941 78.4265 63.906C80.543 61.0297 84.0887 53.7825 82.1724 49.9497C81.101 47.8071 77.7557 47.0358 75.6473 46.4455C64.8539 43.4233 59.5883 56.8517 57.0389 64.5" stroke="#E4004D" stroke-width="7" stroke-linecap="round"/>
<path d="M24.2829 90.1875C24.2829 93.6065 24.9698 97.0837 25.3704 100.489C25.6717 103.05 26.9799 108.05 25.6423 110.457C24.5479 112.427 26.9299 104.375 25.68 102.5C24.66 100.97 23.0696 100.241 21.4014 99.5C18.8985 99.5 14.2235 99.975 15.5828 99.975C18.3881 99.975 21.068 100.519 23.86 100.519C26.0994 100.519 28.1651 100.054 30.385 99.975C31.8731 99.9219 33.1302 98.8875 34.6142 98.8875" stroke="#E4004D" stroke-width="7" stroke-linecap="round"/>
<path d="M74.8369 4C74.8369 12.2634 73.2057 20.4744 73.2057 28.6803C73.2057 31.6654 74.9406 20.301 73.9087 17.5C72.9533 14.9069 69.4798 14.9004 66.8015 13.9084C66.0299 13.6226 63.1329 12.6698 63.4181 12.8209C65.8184 14.0916 68.1306 14.4497 70.7286 15.1771C75.6332 16.5504 80.5228 14.8751 85.1682 14.8751" stroke="#E4004D" stroke-width="7" stroke-linecap="round"/>
</svg>
