<svg width="150" height="74" viewBox="0 0 150 74" fill="none" xmlns="http://www.w3.org/2000/svg">
<path d="M24.1513 19.2801C22.7159 16.4093 16.2511 19.122 14.7885 20.8406C9.87251 26.6168 20.769 33.2156 21.2432 38.4314C22.0196 46.9725 9.44669 44.6501 5 43.5385" stroke="#E4004D" stroke-width="10" stroke-linecap="round"/>
<path d="M30.5352 26.9404C31.0793 32.9265 33.5349 39.1817 36.2096 44.5313C39.24 50.592 41.7775 40.0142 43.2318 37.651C45.6341 33.7472 49.7194 42.8472 52.24 44.2475C59.0873 48.0516 57.2383 30.6093 57.347 28.2172" stroke="#E4004D" stroke-width="10" stroke-linecap="round"/>
<path d="M73.9434 25.6638C74.2897 32.9375 75.2201 40.0487 75.2201 47.3686" stroke="#E4004D" stroke-width="10" stroke-linecap="round"/>
<path d="M72.668 5.23568C72.668 10.6847 72.668 3.66235 72.668 5.23568" stroke="#E4004D" stroke-width="10" stroke-linecap="round"/>
<path d="M85.4355 26.9407C85.7617 35.4212 87.3415 43.6603 88.4856 52.0502C89.1861 57.1871 89.2658 72.7685 89.2658 67.584C89.2658 61.7922 89.3226 55.9974 89.2658 50.206C89.2086 44.3687 87.1076 37.4689 88.5565 31.7639C91.3647 20.7065 106.394 29.2799 107.069 37.7221C107.803 46.8949 97.1666 46.644 90.5426 46.092" stroke="#E4004D" stroke-width="10" stroke-linecap="round"/>
<path d="M112.248 34.6012C116.455 34.7765 127.472 38.0306 128.562 31.764C129.91 24.0117 116.975 15.009 113.099 23.8197C105.259 41.6368 132.579 47.5404 144.166 46.092" stroke="#E4004D" stroke-width="10" stroke-linecap="round"/>
</svg>
