<svg width="56" height="86" viewBox="0 0 56 86" fill="none" xmlns="http://www.w3.org/2000/svg">
<path d="M24.2326 82.3C28.9694 81.7079 36.6503 74.2018 39.3937 70.4032C48.8132 57.3609 51.6532 46.6996 51.6532 30.3604C51.6532 21.4127 45.0731 9.16019 36.7822 5.33363C30.3366 2.35873 24.8412 4.87346 19.0096 7.87258C3.78551 15.7021 1.90219 33.3114 5.662 48.3506C7.49146 55.6685 10.3619 62.8996 14.4395 69.2425C17.1675 73.4862 21.3388 77.5358 22.9268 82.3" stroke="#E4004D" stroke-width="7" stroke-linecap="round"/>
<path d="M26.8434 26.1528C12.5972 26.1528 17.1534 45.739 29.4549 45.739C41.8112 45.739 37.3832 27.4586 26.8434 27.4586" stroke="#E4004D" stroke-width="7" stroke-linecap="round"/>
</svg>
