<svg width="289" height="73" viewBox="0 0 289 73" fill="none" xmlns="http://www.w3.org/2000/svg">
<path d="M16.3125 11.8896C16.9203 31.3399 16.3125 50.0321 16.3125 69.3522" stroke="#E4004D" stroke-width="7" stroke-linecap="round"/>
<path d="M4 15.9942C16.7386 13.6425 43.0588 8.70276 56.9021 6.41711C60.3895 5.8413 73.5397 2.476 78.5645 4.82093C81.1162 6.01171 82.6148 9.31247 82.783 12.0038C83.5514 24.2983 57.667 27.3367 49.6052 30.3599C43.7087 32.571 36.1164 34.0101 30.9071 37.6567C25.9166 41.15 57.4466 60.9645 61.4626 63.1956" stroke="#E4004D" stroke-width="7" stroke-linecap="round"/>
<path d="M65.5664 54.9868C70.7253 54.9868 88.8916 57.6637 92.2455 51.7944C94.7975 47.3283 90.9081 44.8934 86.5448 44.7256C72.4413 44.1832 84.401 73.898 100.454 63.1957" stroke="#E4004D" stroke-width="7" stroke-linecap="round"/>
<path d="M112.767 48.8299C102.017 50.98 102.738 63.1956 113.793 63.1956C125.726 63.1956 133.034 46.9287 133.29 36.9726C133.439 31.1351 130.616 9.63141 131.351 28.7636C131.722 38.3889 132.038 49.0749 133.404 58.6351C133.447 58.9404 139.524 51.4617 143.551 50.4261C154.277 47.6679 154.751 65.9408 165.669 55.4427C172.34 49.0287 166.637 36.3724 162.933 44.8395C157.401 57.4835 174.194 69.6952 185.394 61.9414C190.141 58.6545 188.53 50.6274 186.762 46.2076C185.14 42.152 187.296 55.1388 189.156 59.0911C190.489 61.9244 189.139 54.3717 192.006 53.0484C196.683 50.8898 202.135 50.8822 207.17 50.8822" stroke="#E4004D" stroke-width="7" stroke-linecap="round"/>
<path d="M221.536 48.8299C218.23 48.4993 212.133 44.7792 209.223 47.6898C205.287 51.6256 208.414 57.6159 211.731 60.6873C228.857 76.5444 227.693 24.1606 227.693 18.9585C227.693 8.8187 229.062 24.3897 229.289 26.7114C230.211 36.1342 231.797 45.5159 231.797 54.9866C231.797 63.9938 231.912 55.7828 233.85 51.7943C236.115 47.1306 241.881 43.8952 247.075 44.8395C253.991 46.0969 254.722 57.0389 261.555 57.0389C268.046 57.0389 275.743 42.0506 269.65 38.5688C261.697 34.0246 259.775 47.6121 260.643 52.8204C261.911 60.4292 279.304 63.1956 285.156 63.1956" stroke="#E4004D" stroke-width="7" stroke-linecap="round"/>
</svg>
