<svg width="80" height="103" viewBox="0 0 80 103" fill="none" xmlns="http://www.w3.org/2000/svg">
<path d="M31.8047 98.1904C42.3466 95.0898 52.9995 92.3083 63.6878 89.7732C67.5478 88.8577 71.9009 87.9522 75.4208 86.0323C76.6757 85.3477 75.8034 78.5985 75.8034 77.6151C75.8034 70.743 75.8458 63.8694 75.8034 56.9974C75.7596 49.909 76.34 40.4192 70.8296 35.0618C69.1601 33.4387 67.0118 31.4292 64.708 30.8533" stroke="#E4004D" stroke-width="7" stroke-linecap="round"/>
<path d="M31.0386 99.3381C31.7784 91.9402 30.0894 86.9677 25.1296 81.4411C22.9037 78.9607 20.024 77.3054 17.7753 74.8944C14.3839 71.2583 10.8939 67.6084 8.06156 63.5015C6.79549 61.6657 0.799922 49.6075 6.25485 49.2179C9.01009 49.0211 9.67945 48.8203 12.1639 50.4507C14.1326 51.7427 16.1286 53.172 17.7753 54.8718C18.1539 55.2627 18.288 56.3504 18.7743 56.5935C19.239 56.8259 18.7067 55.5551 18.6255 55.0419C18.154 52.0629 17.4827 49.1157 16.9038 46.1571C16.0914 42.0049 15.7524 37.7081 14.7783 33.5952C13.7338 29.1851 12.1854 24.8658 11.3349 20.4168C10.3912 15.4807 9.23061 10.454 9.23061 5.41052C9.23061 3.90859 10.4317 3.8313 11.6962 4.15645C13.7603 4.68722 15.1471 6.28559 16.585 7.76987C21.2726 12.6087 23.7898 19.9216 26.0011 26.1133C27.8968 31.4211 29.1861 36.7657 30.8473 42.1186C31.3506 43.7402 31.8038 45.2277 31.8038 46.9223" stroke="#E4004D" stroke-width="7" stroke-linecap="round"/>
<path d="M30.2734 30.0881C32.6627 26.3549 37.4576 26.1769 40.5185 29.2379C44.3904 33.1097 45.8027 38.2591 47.1077 43.479" stroke="#E4004D" stroke-width="7" stroke-linecap="round"/>
<path d="M43.2832 31.6184C47.5422 27.5171 56.3163 26.6711 58.5871 32.9788C59.577 35.7285 60.8827 38.5329 60.8827 41.5659" stroke="#E4004D" stroke-width="7" stroke-linecap="round"/>
</svg>
