<svg width="243" height="275" viewBox="0 0 243 275" fill="none" xmlns="http://www.w3.org/2000/svg">
<path d="M16.7191 237C16.7191 241.485 17.1486 245.61 13.471 248.568C11.861 249.863 10.3123 251.238 8.64885 252.466C7.53495 253.288 3.99371 254.367 5.27586 254.889C7.38451 255.748 10.2306 254.607 12.4716 255.014C14.1688 255.323 15.4453 257.509 16.2693 258.837C18.182 261.919 19.8443 265.287 21.4662 268.531C21.7712 269.141 22.1158 271.358 22.1158 269.83C22.1158 268.515 22.1158 267.199 22.1158 265.883C22.1158 262.358 23.0666 260.67 24.3395 257.488C25.5713 254.408 36.4011 252.741 33.0843 252.741C29.7377 252.741 26.9793 252.038 23.7649 251.841C19.5256 251.582 16.7191 247.804 16.7191 243.746" stroke="#E4004D" stroke-width="9" stroke-linecap="round"/>
<path d="M22.8897 254C21.4022 255.035 18.3233 259.551 19.1336 257.93C19.7936 256.61 20.7355 255.436 21.9507 254.626" stroke="#E4004D" stroke-width="9" stroke-linecap="round"/>
<path d="M182.845 4.82928C182.845 7.78045 183.364 11.3265 182.438 14.1742C181.301 17.6724 177.777 19.6975 174.729 21.2867C173.28 22.042 171.696 22.3966 170.229 23.1297C170.159 23.1649 168.571 23.8048 169.33 23.8305C170.013 23.8537 170.697 23.8113 171.38 23.8392C174.047 23.948 176.229 25.097 177.982 27.1013C178.966 28.226 179.75 29.5361 180.5 30.8219C181.429 32.4144 182.469 33.9256 183.079 35.676C183.56 37.056 184.39 38.5401 184.679 39.9591C184.728 40.1999 184.834 40.8904 184.679 40.2706C184.469 39.4286 184.011 38.7093 183.866 37.8392C183.677 36.7074 183.685 35.3485 183.797 34.2051C183.98 32.3232 185.757 29.7204 187.31 28.6587C188.323 27.9663 189.363 27.3465 190.459 26.7984C191.741 26.1577 193.175 26.0028 194.526 25.5524C195.736 25.1491 197.026 24.9614 198.23 24.5747C198.331 24.542 196.787 24.4535 196.482 24.4535C195.084 24.4535 193.725 24.4683 192.346 24.2199C191.307 24.0329 190.305 23.7243 189.283 23.4671C188.693 23.3189 187.966 23.2692 187.431 22.948C186.149 22.1787 185.684 20.2194 184.939 19.037C184.496 18.3331 184.537 17.1475 184.013 16.519C183.554 15.9685 183.027 15.2432 182.845 14.5549C182.724 14.0963 182.534 13.5006 182.534 13.0234C182.534 11.5859 182.499 15.9149 182.213 17.3237C181.604 20.3309 181.288 23.2454 181.288 26.3225" stroke="#E4004D" stroke-width="8" stroke-linecap="round"/>
<path d="M219 62.8268C219.352 62.8389 219.703 62.9596 220.05 63.0128C220.673 63.1081 221.324 63.0834 221.94 62.9603C224.746 62.3991 226.487 59.9003 227.124 57.2588C227.686 54.9265 228.517 52.7041 228.946 50.3378C229.003 50.0275 229.07 49.7193 229.135 49.4108C229.164 49.2774 229.138 48.9236 229.239 49.0149C229.388 49.1486 229.244 50.0316 229.233 50.2103C229.069 52.9395 229.747 55.7974 230.589 58.3748C231.087 59.8988 232.429 61.4007 233.856 62.0978C235.097 62.7042 236.423 62.8639 237.789 62.7878C238.127 62.7689 238.469 62.7211 238.809 62.7473C238.927 62.7563 239.089 62.7578 238.941 62.8718C238.467 63.2368 237.821 63.4172 237.267 63.6128C236.381 63.9256 235.529 64.2463 234.69 64.6748C233.831 65.1134 233.024 65.4829 232.312 66.1537C231.63 66.7966 231.009 67.539 230.481 68.3137C229.788 69.3303 229.413 70.7191 229.161 71.9137C228.974 72.7981 228.882 73.6671 228.882 74.5702C228.882 75.2496 228.777 73.2149 228.693 72.5407C228.556 71.445 228.323 70.4656 227.77 69.5002C226.832 67.8618 225.499 66.4874 223.866 65.5297C222.95 64.9928 222.015 64.6507 220.971 64.4633C220.338 64.3496 219.756 64.1113 219.135 63.9608" stroke="#E4004D" stroke-width="8" stroke-linecap="round"/>
<path d="M230.5 64.5C229.519 64.5 228.996 63.8869 228.015 63.6715C227.408 63.5383 229.5 63.8341 229.5 63" stroke="#E4004D" stroke-width="8" stroke-linecap="round"/>
</svg>
