<svg width="182" height="84" viewBox="0 0 182 84" fill="none" xmlns="http://www.w3.org/2000/svg">
<path d="M175.177 56.3003C168.52 70.8625 141.439 72.7327 140.292 72.7972C139.989 72.8163 139.686 72.7601 139.41 72.6337C139.133 72.5073 138.892 72.3146 138.708 72.0729C138.007 71.1638 121.703 49.46 128.36 34.8979C129.927 31.4801 132.792 28.8264 136.327 27.519C139.861 26.2116 143.777 26.3572 147.214 27.9239C151.53 29.8969 154.465 33.4717 155.393 37.6711C159.176 35.6253 163.799 35.5055 168.115 37.4785C171.549 39.053 174.221 41.9188 175.545 45.4474C176.869 48.9759 176.736 52.879 175.177 56.3003Z" fill="#E3004D"/>
<path d="M52.9137 14.0538C55.0596 29.921 33.1597 45.9609 32.2248 46.6275C31.9787 46.8054 31.6922 46.9199 31.3909 46.9606C31.0897 47.0014 30.7831 46.9671 30.4985 46.8609C29.4202 46.4667 4.04647 36.8199 1.90062 20.9527C1.40093 17.2262 2.4068 13.4526 4.69753 10.4599C6.98826 7.46725 10.3768 5.49987 14.1197 4.98941C18.8225 4.35341 23.2122 5.80944 26.2389 8.86471C28.3454 5.11523 32.1906 2.54552 36.8934 1.90953C40.6374 1.40746 44.4268 2.40411 47.4302 4.68082C50.4335 6.95752 52.4056 10.3284 52.9137 14.0538Z" fill="#E3004D"/>
</svg>
