<svg width="79" height="44" viewBox="0 0 79 44" fill="none" xmlns="http://www.w3.org/2000/svg">
<path d="M25.4641 8.43986C27.822 15.7107 18.8993 25.1083 18.5169 25.5009C18.4165 25.6054 18.2916 25.6836 18.1536 25.7283C18.0155 25.7731 17.8686 25.7831 17.7259 25.7574C17.1858 25.664 4.44621 23.2911 2.08837 16.0203C1.53663 14.3123 1.68809 12.4542 2.50954 10.8535C3.33098 9.25289 4.75532 8.04048 6.47007 7.48228C8.62502 6.78346 10.8109 7.09396 12.4926 8.27164C13.1631 6.33118 14.7507 4.79697 16.9057 4.09814C18.6217 3.54379 20.4865 3.68958 22.0909 4.50353C23.6954 5.31748 24.9085 6.73311 25.4641 8.43986Z" fill="#E3004D"/>
<path d="M72.4429 28.6944C65.8237 36.9421 48.1795 33.7577 47.435 33.6135C47.2379 33.5767 47.0527 33.4916 46.8961 33.3659C46.7395 33.2402 46.6164 33.0779 46.5377 32.8934C46.2358 32.1977 39.3071 15.6614 45.9263 7.41361C47.4829 5.4786 49.747 4.24291 52.2221 3.97765C54.6971 3.71239 57.1809 4.43921 59.1285 5.99867C61.573 7.96049 62.8735 10.7244 62.7883 13.5637C65.5418 12.8658 68.5217 13.5372 70.9662 15.499C72.9103 17.0628 74.1576 19.3304 74.4345 21.8041C74.7113 24.2779 73.9951 26.7558 72.4429 28.6944Z" fill="#E3004D"/>
</svg>
