<svg width="82" height="82" viewBox="0 0 82 82" fill="none" xmlns="http://www.w3.org/2000/svg">
<path d="M64.6518 7.14368C64.4788 6.56719 63.5143 5.94258 63.1527 5.38001C62.5981 4.51736 62.3447 4.30874 61.389 4.05725C59.527 3.56727 58.6187 6.34571 58.4691 7.69238C58.3429 8.82807 58.3023 10.0926 58.9198 11.1218C59.8289 12.6369 60.4788 14.2803 61.3988 15.7857C62.4724 17.5426 64.0911 19.2625 65.7394 20.479C67.8451 22.0333 70.0183 23.8372 72.7451 24.0554C74.4812 24.1943 78.2013 25.4355 77.6638 22.3897C77.3269 20.4807 75.1397 19.3834 74.5284 17.5494C73.7244 15.1376 73.9623 11.1514 71.7065 9.47565C70.3183 8.44444 68.1023 8.02552 66.4155 8.02552" stroke="#E4004D" stroke-width="7" stroke-linecap="round"/>
<path d="M5.04088 56.5266C3.14819 57.5286 4.18537 59.2657 5.40342 60.2401C6.23518 60.9055 7.35807 61.0883 8.12731 61.7392C8.98032 62.461 9.2737 63.3883 9.2737 64.4631C9.2737 65.2615 9.41318 66.002 9.45007 66.7951C9.50242 67.9205 10.7868 68.8294 11.6449 69.4014C12.5217 69.986 13.5761 70.2487 14.6235 70.4205C15.8548 70.6223 17.0354 71.4345 17.8275 72.4095C18.3919 73.1041 18.8011 73.9247 19.2385 74.7023C19.8806 75.8438 20.859 76.7042 22.0114 77.338C22.8576 77.8034 23.9368 77.5572 24.4805 76.6913C25.9382 74.3698 25.1256 70.5288 24.7059 68.0101C24.3394 65.8115 23.8072 64.2343 22.4229 62.4545C20.7569 60.3125 18.4365 58.9837 16.0541 57.7612C14.3639 56.8938 12.853 55.951 10.9394 55.6448C8.69368 55.2855 6.54815 55.6287 4.33541 55.9975" stroke="#E4004D" stroke-width="7" stroke-linecap="round"/>
<path d="M18.0896 40.1244C18.7325 39.1065 20.0521 38.2715 20.9213 37.4691C22.3373 36.1621 23.7486 34.9288 25.1051 33.5596C26.234 32.4203 27.403 31.2729 28.3385 29.9735C28.75 29.402 29.3347 29.0361 29.8279 28.5429C30.3659 28.0049 30.7508 27.2984 31.327 26.8087C33.0289 25.362 34.5429 23.7717 36.3535 22.468C38.3254 21.0483 40.3543 19.2886 42.6831 18.4704C44.7954 17.7282 47.5283 17.7686 49.4047 19.1759C51.8305 20.9952 54.3772 22.6199 56.5378 24.7804C60.2328 28.4755 63.931 33.6184 62.7008 39.1544C62.3497 40.7346 61.4007 42.1675 60.2415 43.2598C58.2852 45.1032 56.3938 46.8753 54.6761 48.9526C53.2694 50.6537 51.9023 52.4761 50.3649 54.0574C49.3287 55.1232 48.1012 55.9684 47.0531 57.0165C46.4995 57.5701 46.1154 58.1985 45.4756 58.6724C44.24 59.5876 43.0637 60.7212 41.8013 61.5629C39.818 62.885 37.065 62.3541 34.9229 61.9058C33.9262 61.6972 33.0221 61.7061 32.199 61.0729C30.5894 59.8348 28.8484 58.4533 27.5449 56.8891C25.6112 54.5687 23.5835 52.3669 21.7933 49.9226C21.0026 48.843 20.0026 47.7362 19.499 46.5C19.1879 45.7362 18.1835 45.3444 18.0897 44.5C16.5 42 18.3001 39.9169 20.3004 38" stroke="#E4004D" stroke-width="7" stroke-linecap="round"/>
<path d="M21.0664 43.7041C22.1355 43.4573 23.1495 42.5984 24.0767 42.0635C27.4761 40.1023 31.1978 38.5059 34.3023 36.0747C37.5358 33.5424 39.3434 29.7076 42.282 26.9323C42.9708 26.2817 44.4962 24.4052 42.2661 25.3554C38.8022 26.8313 35.4403 28.692 32.152 30.516C31.1819 31.0541 29.1723 31.9684 28.425 33.0644C26.6473 35.6717 26.407 39.0198 26.9596 41.9839C27.5871 45.3497 27.6127 49.6188 30.8141 51.6997C33.6428 53.5384 35.6582 55.1783 39.2239 54.6623C43.3009 54.0722 46.4137 51.097 49.4494 48.562C51.5331 46.822 53.6616 45.0803 54.833 42.5573C56.5383 38.8842 55.2147 35.4665 53.1287 32.268C52.1726 30.802 50.768 29.6818 49.8954 28.1905C49.2571 27.0996 46.737 23.8048 49.322 26.7252C51.1511 28.7916 53.0368 30.8078 54.8489 32.8892C55.4032 33.5259 56.2307 34.3739 56.4894 35.2306C57.8259 39.6548 48.6301 42.9255 46.0728 44.2456C43.23 45.713 40.4066 47.0625 38.0453 49.2628C37.4325 49.8338 37.1534 51.2187 36.3251 51.0945C35.7379 51.0064 35.7749 50.0422 35.4968 49.5176C34.4426 47.529 33.4422 45.4903 32.3113 43.5448C31.9701 42.9578 30.1939 41.499 31.3079 43.3218C32.3807 45.0774 35.0582 46.3044 36.8029 44.5004C38.3484 42.9024 38.5211 39.516 37.9656 37.4923C37.6424 36.3148 37.0519 39.7612 36.7073 40.9326C36.2427 42.5124 34.6688 47.1839 35.3376 45.6791C36.1618 43.8246 36.5337 41.8814 37.7267 40.1681C38.9072 38.4728 40.0093 37.9255 41.5175 39.308C42.8593 40.538 42.745 37.9413 43.0147 36.7278C45.7968 24.208 45.0062 37.9257 47.3151 36.7596C48.8577 35.9805 48.2336 32.3858 48.9875 31.0575C49.8382 29.5587 49.6406 34.4628 49.6406 36.1862C49.6406 38.3401 49.1365 39.9586 48.6849 41.9202C48.0286 44.7709 47.5099 49.1443 45.4357 51.3812C43.0154 53.9913 40.5066 56.6606 37.9815 59.1857" stroke="#E3004D" stroke-width="8" stroke-linecap="round"/>
<path d="M45.1484 20.1949C46.0439 21.1809 48.5888 23.0724 48.5888 24.6387C48.5888 25.2756 47.9675 24.6744 47.7287 24.4953" stroke="#E3004D" stroke-width="8" stroke-linecap="round"/>
</svg>
