<svg width="72" height="89" viewBox="0 0 72 89" fill="none" xmlns="http://www.w3.org/2000/svg">
<path d="M42.1468 8.78115C43.0449 6.01722 46.9551 6.01722 47.8532 8.78115L50.3883 16.5836C50.79 17.8197 51.9418 18.6565 53.2415 18.6565H61.4455C64.3516 18.6565 65.56 22.3754 63.2088 24.0836L56.5717 28.9058C55.5202 29.6697 55.0802 31.0238 55.4819 32.2599L58.017 40.0623C58.9151 42.8262 55.7516 45.1246 53.4005 43.4164L46.7634 38.5942C45.7119 37.8303 44.2881 37.8303 43.2366 38.5942L36.5995 43.4164C34.2484 45.1246 31.0849 42.8262 31.983 40.0623L34.5181 32.2599C34.9198 31.0238 34.4798 29.6697 33.4283 28.9058L26.7912 24.0836C24.44 22.3754 25.6484 18.6565 28.5545 18.6565H36.7585C38.0582 18.6565 39.21 17.8197 39.6117 16.5836L42.1468 8.78115Z" fill="#FFC1C1"/>
<path d="M42.1468 8.78115C43.0449 6.01722 46.9551 6.01722 47.8532 8.78115L50.3883 16.5836C50.79 17.8197 51.9418 18.6565 53.2415 18.6565H61.4455C64.3516 18.6565 65.56 22.3754 63.2088 24.0836L56.5717 28.9058C55.5202 29.6697 55.0802 31.0238 55.4819 32.2599L58.017 40.0623C58.9151 42.8262 55.7516 45.1246 53.4005 43.4164L46.7634 38.5942C45.7119 37.8303 44.2881 37.8303 43.2366 38.5942L36.5995 43.4164C34.2484 45.1246 31.0849 42.8262 31.983 40.0623L34.5181 32.2599C34.9198 31.0238 34.4798 29.6697 33.4283 28.9058L26.7912 24.0836C24.44 22.3754 25.6484 18.6565 28.5545 18.6565H36.7585C38.0582 18.6565 39.21 17.8197 39.6117 16.5836L42.1468 8.78115Z" fill="#FFC1C1"/>
<path d="M42.1468 8.78115C43.0449 6.01722 46.9551 6.01722 47.8532 8.78115L50.3883 16.5836C50.79 17.8197 51.9418 18.6565 53.2415 18.6565H61.4455C64.3516 18.6565 65.56 22.3754 63.2088 24.0836L56.5717 28.9058C55.5202 29.6697 55.0802 31.0238 55.4819 32.2599L58.017 40.0623C58.9151 42.8262 55.7516 45.1246 53.4005 43.4164L46.7634 38.5942C45.7119 37.8303 44.2881 37.8303 43.2366 38.5942L36.5995 43.4164C34.2484 45.1246 31.0849 42.8262 31.983 40.0623L34.5181 32.2599C34.9198 31.0238 34.4798 29.6697 33.4283 28.9058L26.7912 24.0836C24.44 22.3754 25.6484 18.6565 28.5545 18.6565H36.7585C38.0582 18.6565 39.21 17.8197 39.6117 16.5836L42.1468 8.78115Z" fill="#E4004D"/>
<path d="M15.5965 59.9021C16.1926 58.0539 18.8074 58.0539 19.4035 59.9021L20.9607 64.7307C21.2276 65.5584 21.9989 66.1187 22.8685 66.1168L27.942 66.1058C29.8839 66.1015 30.692 68.5884 29.1185 69.7264L25.0074 72.6995C24.3027 73.2092 24.0081 74.1158 24.2787 74.9423L25.857 79.7641C26.4611 81.6096 24.3457 83.1466 22.7771 82.0017L18.6791 79.0106C17.9766 78.4979 17.0234 78.4979 16.3209 79.0106L12.2229 82.0017C10.6543 83.1466 8.53888 81.6096 9.143 79.7641L10.7213 74.9423C10.9919 74.1158 10.6973 73.2092 9.99262 72.6995L5.88155 69.7264C4.30803 68.5884 5.11605 66.1015 7.05795 66.1058L12.1315 66.1168C13.0011 66.1187 13.7724 65.5584 14.0393 64.7307L15.5965 59.9021Z" fill="#FFC1C1"/>
<path d="M15.5965 59.9021C16.1926 58.0539 18.8074 58.0539 19.4035 59.9021L20.9607 64.7307C21.2276 65.5584 21.9989 66.1187 22.8685 66.1168L27.942 66.1058C29.8839 66.1015 30.692 68.5884 29.1185 69.7264L25.0074 72.6995C24.3027 73.2092 24.0081 74.1158 24.2787 74.9423L25.857 79.7641C26.4611 81.6096 24.3457 83.1466 22.7771 82.0017L18.6791 79.0106C17.9766 78.4979 17.0234 78.4979 16.3209 79.0106L12.2229 82.0017C10.6543 83.1466 8.53888 81.6096 9.143 79.7641L10.7213 74.9423C10.9919 74.1158 10.6973 73.2092 9.99262 72.6995L5.88155 69.7264C4.30803 68.5884 5.11605 66.1015 7.05795 66.1058L12.1315 66.1168C13.0011 66.1187 13.7724 65.5584 14.0393 64.7307L15.5965 59.9021Z" fill="#FFC1C1"/>
<path d="M15.5965 59.9021C16.1926 58.0539 18.8074 58.0539 19.4035 59.9021L20.9607 64.7307C21.2276 65.5584 21.9989 66.1187 22.8685 66.1168L27.942 66.1058C29.8839 66.1015 30.692 68.5884 29.1185 69.7264L25.0074 72.6995C24.3027 73.2092 24.0081 74.1158 24.2787 74.9423L25.857 79.7641C26.4611 81.6096 24.3457 83.1466 22.7771 82.0017L18.6791 79.0106C17.9766 78.4979 17.0234 78.4979 16.3209 79.0106L12.2229 82.0017C10.6543 83.1466 8.53888 81.6096 9.143 79.7641L10.7213 74.9423C10.9919 74.1158 10.6973 73.2092 9.99262 72.6995L5.88155 69.7264C4.30803 68.5884 5.11605 66.1015 7.05795 66.1058L12.1315 66.1168C13.0011 66.1187 13.7724 65.5584 14.0393 64.7307L15.5965 59.9021Z" fill="#E4004D"/>
</svg>
