<svg width="677" height="102" viewBox="0 0 677 102" fill="none" xmlns="http://www.w3.org/2000/svg">
<path d="M21.9935 54.3314C18.8156 52.6934 16.3983 51.5753 14.1428 50.263C4.19418 44.4886 -0.284945 35.6332 2.27346 26.7246C4.33892 19.5167 9.97814 14.8156 18.1659 12.0734C27.7135 8.87554 37.6556 8.96676 47.5826 10.8594C74.4053 15.9666 94.6333 28.8804 109.549 47.5567C112.395 51.1207 115.261 52.2282 120.169 52.2308C273.115 52.312 426.066 52.5049 579.016 52.6698C581.324 52.6713 583.629 52.5211 587.302 52.3944C585.192 50.3171 583.971 49.1132 582.745 47.9094C578.424 43.6685 575.264 38.915 573.49 33.6177C572.06 29.3456 574.487 27.2725 579.748 28.2683C581.254 28.5533 582.697 29.2786 584.041 29.9695C606.574 41.5509 631.326 47.9869 657.111 51.9473C661.41 52.6061 665.862 52.5556 670.243 52.7857C672.566 52.9068 674.813 53.1648 675.126 55.5245C675.424 57.7886 673.415 58.6533 671.203 59.1376C670.072 59.3862 668.841 59.3526 667.649 59.4223C640.481 60.9422 615.502 67.7652 592.463 79.2241C588.408 81.2416 584.635 83.6424 580.528 85.5808C579.009 86.2984 576.656 86.7888 575.123 86.3365C572.65 85.6066 572.904 83.482 573.366 81.6499C575.127 74.7062 578.267 68.2811 583.766 62.7594C584.746 61.7742 585.725 60.7891 587.512 58.9931C584.534 58.8459 582.496 58.6646 580.461 58.663C547.713 58.6088 514.966 58.5784 482.223 58.544C362.421 58.4154 242.614 58.2908 122.812 58.1622C121.216 58.1621 119.61 58.2499 118.02 58.1459C115.245 57.9636 113.948 59.1452 112.46 60.9527C108.721 65.4936 104.876 70.0561 100.315 74.0262C94.5068 79.0813 88.2569 83.8714 81.6556 88.2315C66.4972 98.2427 49.0617 102.844 29.332 100.175C12.1404 97.852 0.882254 84.2532 4.41744 70.785C5.96248 64.8909 10.1546 60.5509 16.1474 57.2863C17.7754 56.3993 19.4755 55.5991 21.9981 54.3273L21.9935 54.3314Z" fill="#AB529D"/>
</svg>
