<svg width="677" height="102" viewBox="0 0 677 102" fill="none" xmlns="http://www.w3.org/2000/svg">
<path d="M21.4353 54.3314C18.2575 52.6934 15.8401 51.5753 13.5847 50.263C3.63608 44.4886 -0.84305 35.6332 1.71535 26.7246C3.78081 19.5167 9.42003 14.8156 17.6078 12.0734C27.1554 8.87554 37.0975 8.96676 47.0244 10.8594C73.8472 15.9666 94.0752 28.8804 108.991 47.5567C111.837 51.1207 114.703 52.2282 119.611 52.2308C272.557 52.312 425.508 52.5049 578.458 52.6698C580.766 52.6713 583.071 52.5211 586.744 52.3944C584.634 50.3171 583.413 49.1132 582.187 47.9094C577.866 43.6685 574.706 38.915 572.932 33.6177C571.502 29.3456 573.929 27.2725 579.19 28.2683C580.696 28.5533 582.139 29.2786 583.483 29.9695C606.016 41.5509 630.768 47.9869 656.553 51.9473C660.852 52.6061 665.304 52.5556 669.685 52.7857C672.008 52.9068 674.255 53.1648 674.567 55.5245C674.866 57.7886 672.857 58.6533 670.645 59.1376C669.514 59.3862 668.283 59.3526 667.091 59.4223C639.923 60.9422 614.944 67.7652 591.905 79.2241C587.85 81.2416 584.077 83.6424 579.97 85.5808C578.451 86.2984 576.098 86.7888 574.565 86.3365C572.092 85.6066 572.346 83.482 572.808 81.6499C574.569 74.7062 577.709 68.2811 583.208 62.7594C584.188 61.7742 585.167 60.7891 586.954 58.9931C583.976 58.8459 581.938 58.6646 579.903 58.663C547.155 58.6088 514.408 58.5784 481.665 58.544C361.863 58.4154 242.056 58.2908 122.253 58.1622C120.658 58.1621 119.052 58.2499 117.462 58.1459C114.687 57.9636 113.39 59.1452 111.902 60.9527C108.163 65.4936 104.317 70.0561 99.7571 74.0262C93.9487 79.0813 87.6988 83.8714 81.0975 88.2315C65.9391 98.2427 48.5035 102.844 28.7739 100.175C11.5823 97.852 0.324148 84.2532 3.85933 70.785C5.40437 64.8909 9.59651 60.5509 15.5893 57.2863C17.2172 56.3993 18.9174 55.5991 21.44 54.3273L21.4353 54.3314Z" fill="#FF4895"/>
</svg>
